/* XPM */
static char *fc8ec2b0aa024bf0a38ba811b4291d27NTLrzPrn9jIGVOAM[] = {
/* columns rows colors chars-per-pixel */
"50 50 3 1 ",
"  c black",
". c #555D5D",
"X c white",
/* pixels */
"XXXXX.....XXXXX.....XXXXX.....XXXXX.....XXXXX.....",
"..................................................",
"..................................................",
"..................................................",
"..................................................",
"..................................................",
"..................................................",
"..................................................",
"..................................................",
"..................................................",
"..........   .....................................",
".........    .....................................",
"........     ........    ...........   ...........",
"........    ........     ..........     ..........",
"........   ........      ..........     ..........",
"...................     ............   ...........",
"...................     ..........................",
"..................................................",
"..................................................",
"..................................................",
"..................     ...........................",
"..............           .........................",
"............               .......................",
".........                   ......................",
".........                   ............. ........",
".......                        .........   .......",
"......                          .......     ......",
".....                            .......     .....",
"....                             .........  ......",
"....                             .................",
"....                           ...................",
".....                       ......................",
".......                     ......................",
"........                   .......................",
".........                 ........................",
"...........            ...........................",
"............          ........... ................",
"..............     .............   ...............",
"...............................    ...............",
"..............................    ................",
".... .........................   .................",
"....   ...........................................",
"..     ...........................................",
"..     ........... ...............................",
"...  ...........    ..............................",
"................    ..............................",
".................   ..............................",
"..................................................",
"..................................................",
"XXXXX.....XXXXX.....XXXXX.....XXXXX.....XXXXX....."
};
