/* XPM */
static char *_d237aa941844342c8ef7674b918900fvievEe7FcGhmy5TY[] = {
/* columns rows colors chars-per-pixel */
"50 50 3 1 ",
"  c None",
". c black",
"X c white",
/* pixels */
"                                                  ",
"                                                  ",
"                                                  ",
"                                                  ",
"                                                  ",
"           ...                                    ",
"          .....                                   ",
"         .......                                  ",
"         .......                                  ",
"          .....                                   ",
"           ...               ...XX                ",
"           ... .          ......XXXXX             ",
"           ... ...       X......XXXXX             ",
"           ... ......XXXXX......XXXXX             ",
"           ... ......XXXXX......XXXXX             ",
"           ... ......XXXXX...XXX....X             ",
"           ... ......XXXXX.XXXXX.....             ",
"           ... XX....XXXX.XXXXXX.....             ",
"           ... XXX...XX...XXXXXX.....             ",
"           ... XXXXXX.....XXXXXX.....             ",
"           ... XXXXXX.....XXX...XXXX.             ",
"           ... XXXXXX...........XXXXX             ",
"           ... ..XXXX....X......XXXXX             ",
"           ... ...XXX..XXX......XXXXX             ",
"           ... ......XXXXX......XXXXX             ",
"           ... ......XXXXX....    XXX             ",
"           ... ......XXXXX..        X             ",
"           ...   ....XXXXX.                       ",
"           ...     ..XX                           ",
"           ...                                    ",
"           ...                                    ",
"           ...                                    ",
"           ...                                    ",
"           ...                                    ",
"           ...                                    ",
"           ...                                    ",
"           ...                                    ",
"           ...                                    ",
"           ...                                    ",
"           ...                                    ",
"           ...                                    ",
"           ...                                    ",
"           ...                                    ",
"           ...                                    ",
"            .                                     ",
"                                                  ",
"                                                  ",
"                                                  ",
"                                                  ",
"                                                  "
};
