/* XPM */
static char *_ee640fc58fc4145aadf63ec5ddff5d1AvLoduC83NzW4psU[] = {
/* columns rows colors chars-per-pixel */
"50 50 10 1 ",
"  c None",
". c #3D2926",
"X c #293237",
"o c #374349",
"O c #3B4A52",
"+ c #4E626C",
"@ c #D73B0A",
"# c #FCD71A",
"$ c #007AEF",
"% c #ABAFB1",
/* pixels */
"                                                  ",
"                                                  ",
"                                                  ",
"                                                  ",
"                                                  ",
"                                                  ",
"                                                  ",
"                                                  ",
"                                   ooooooooo      ",
"       ooooooooo                   ooooooooo      ",
"       ooooooooo                   ooooooooo      ",
"  @@@@ ooooooooo                   ooooooooo      ",
"  @@@@ ooooooooo                   oooooo@@@@@@@  ",
"  @@@@ ooooooooo         @@@+++++++oooooo@@@@@@@  ",
"  @@@@ ooooooooo        @@@@@@@++++oooooo@@@@@@@  ",
"  @@@@ ooooooooo        @@@@@@@@@+++++OX @@@@@@@  ",
"  @@@@    %+%          @@@@@@@@@@@@+++OX @@@@@@@  ",
"  @@@@    %+%          @@@@@@@@@@@@@@@OX @@@@@@@  ",
"  @@@@    %+%          @@@@@@@@@@@@@@@@@ @@@@@@@  ",
"  @@@@    %+%     @@@@@@@@@@@@@@@@@@@@@@@@@@@@@@  ",
"  @@@@   @@@@@@@@@@@@@@@@@@@@@@@@@@@@@@@@@@@@@@@  ",
"  @@@@@@@@@@@@@@@@@@@..$$..@@@@.@@@@@@@@@@@@@@@@  ",
" @@@@@@@@@@@@@@@@@@@..$$$$.@@@@.@@@@@@@@@@@@@@@@  ",
" @@@@@@@@@@@@@@@@@@@..####.@@@@.@@@@@@@@@@@@@@@@  ",
" @@@@@@@@@@@@@@@@@@@..$$$$.@@@@.@@@@@@@@@@@@@@@@  ",
"  @@@@@@@@@@@@@@@@@@@..$$..@@@@.@@@@@@@@@@@@@@@@  ",
"  @@@@   @@@@@@@@@@@@@@@@@@@@@@@@@@@@@@@@@@@@@@@  ",
"  @@@@    %+%     @@@@@@@@@@@@@@@@@@@@@@@@@@@@@@  ",
"  @@@@    %+%          @@@@@@@@@@@@@@@@@ @@@@@@@  ",
"  @@@@    %+%          @@@@@@@@@@@@@@@OX @@@@@@@  ",
"  @@@@    %+%          @@@@@@@@@@@@+++OX @@@@@@@  ",
"  @@@@ ooooooooo        @@@@@@@@@+++++OX @@@@@@@  ",
"  @@@@ ooooooooo        @@@@@@@++++oooooo@@@@@@@  ",
"  @@@@ ooooooooo         @@@+++++++oooooo@@@@@@@  ",
"  @@@@ ooooooooo                   oooooo@@@@@@@  ",
"  @@@@ ooooooooo                   ooooooooo      ",
"       ooooooooo                   ooooooooo      ",
"       ooooooooo                   ooooooooo      ",
"                                   ooooooooo      ",
"                                                  ",
"                                                  ",
"                                                  ",
"                                                  ",
"                                                  ",
"                                                  ",
"                                                  ",
"                                                  ",
"                                                  ",
"                                                  ",
"                                                  "
};
