/* XPM */
static char *e0dcc702c4ba483a9e713d2bd075f3f3GblfjFAKWQK6xuMl[] = {
/* columns rows colors chars-per-pixel */
"50 50 10 1 ",
"  c None",
". c #3D2926",
"X c #293237",
"o c #374349",
"O c #3B4A52",
"+ c #4E626C",
"@ c #D73B0A",
"# c #FCD71A",
"$ c #007AEF",
"% c #ABAFB1",
/* pixels */
"                                                  ",
"                                                  ",
"                                                  ",
"                                                  ",
"                                                  ",
"                                                  ",
"                                                  ",
"                                                  ",
"                                                  ",
"                                                  ",
"                                                  ",
"      ooooooooo                                   ",
"      ooooooooo                   ooooooooo       ",
"      ooooooooo                   ooooooooo       ",
"      ooooooooo                   ooooooooo @@@@  ",
"  @@@@@@@oooooo                   ooooooooo @@@@  ",
"  @@@@@@@oooooo+++++++@@@         ooooooooo @@@@  ",
"  @@@@@@@oooooo++++@@@@@@@        ooooooooo @@@@  ",
"  @@@@@@@ XO+++++@@@@@@@@@        ooooooooo @@@@  ",
"  @@@@@@@ XO+++@@@@@@@@@@@@          %+%    @@@@  ",
"  @@@@@@@ XO@@@@@@@@@@@@@@@          %+%    @@@@  ",
"  @@@@@@@ @@@@@@@@@@@@@@@@@          %+%    @@@@  ",
"  @@@@@@@@@@@@@@@@@@@@@@@@@@@@@@     %+%    @@@@  ",
"  @@@@@@@@@@@@@@@@@@@@@@@@@@@@@@@@@@@@@@@   @@@@  ",
"  @@@@@@@@@@@@@@@@.@@@@..$$..@@@@@@@@@@@@@@@@@@@  ",
"  @@@@@@@@@@@@@@@@.@@@@.$$$$..@@@@@@@@@@@@@@@@@@@ ",
"  @@@@@@@@@@@@@@@@.@@@@.####..@@@@@@@@@@@@@@@@@@@ ",
"  @@@@@@@@@@@@@@@@.@@@@.$$$$..@@@@@@@@@@@@@@@@@@@ ",
"  @@@@@@@@@@@@@@@@.@@@@..$$..@@@@@@@@@@@@@@@@@@@  ",
"  @@@@@@@@@@@@@@@@@@@@@@@@@@@@@@@@@@@@@@@   @@@@  ",
"  @@@@@@@@@@@@@@@@@@@@@@@@@@@@@@     %+%    @@@@  ",
"  @@@@@@@ @@@@@@@@@@@@@@@@@          %+%    @@@@  ",
"  @@@@@@@ XO@@@@@@@@@@@@@@@          %+%    @@@@  ",
"  @@@@@@@ XO+++@@@@@@@@@@@@          %+%    @@@@  ",
"  @@@@@@@ XO+++++@@@@@@@@@        ooooooooo @@@@  ",
"  @@@@@@@oooooo++++@@@@@@@        ooooooooo @@@@  ",
"  @@@@@@@oooooo+++++++@@@         ooooooooo @@@@  ",
"  @@@@@@@oooooo                   ooooooooo @@@@  ",
"      ooooooooo                   ooooooooo @@@@  ",
"      ooooooooo                   ooooooooo       ",
"      ooooooooo                   ooooooooo       ",
"      ooooooooo                                   ",
"                                                  ",
"                                                  ",
"                                                  ",
"                                                  ",
"                                                  ",
"                                                  ",
"                                                  ",
"                                                  "
};
