/* XPM */
static char *b7d8fe635f7845c9b89f4910f287fdff6qKJlu4NMsN34lCK[] = {
/* columns rows colors chars-per-pixel */
"50 50 10 1 ",
"  c None",
". c #3D2926",
"X c #293237",
"o c #374349",
"O c #3B4A52",
"+ c #4E626C",
"@ c #D73B0A",
"# c #FCD71A",
"$ c #007AEF",
"% c #ABAFB1",
/* pixels */
"                                                  ",
"                                                  ",
"            @@@@@@@@@@@@@@@@@@@@@@@               ",
"            @@@@@@@@@@@@@@@@@@@@@@@               ",
"            @@@@@@@@@@@@@@@@@@@@@@@               ",
"            @@@@@@@@@@@@@@@@@@@@@@@               ",
"        oooo@@@@@@@@@@@@@@@@@@@@@@@oooo           ",
"        oooo@@@@@@@@@@@@@@@@@@@@@@@oooo           ",
"        oooo@@@@@@@@@@@@@@@@@@@@@@@oooo           ",
"        ooooooo    @@@@@@@@@    ooooooo           ",
"        oooooooXXX@@@@@@@@@@@XXXooooooo           ",
"        oooooooOOO@@@@@@@@@@@OOOooooooo           ",
"        ooooooo++@@@@@@@@@@@@@++ooooooo           ",
"        ooooooo++@@@@@@@@@@@@@++ooooooo           ",
"        ooooooo++@@@@@@@@@@@@@++ooooooo           ",
"             +++@@@@@@@@@@@@@@@+++                ",
"             +++@@@@@@@@@@@@@@@+++                ",
"             ++@@@@@@@@@@@@@@@@@++                ",
"             ++@@@@@@.....@@@@@@++                ",
"             +@@@@@@@@@@@@@@@@@@@+                ",
"             +@@@@@@@@@@@@@@@@@@@+                ",
"             +@@@@@@@@@@@@@@@@@@@+                ",
"             @@@@@@@@@@@@@@@@@@@@@                ",
"             @@@@@@@@.....@@@@@@@@                ",
"             @@@@@@@@.$#$.@@@@@@@@                ",
"              @@@@@@@$$#$$@@@@@@@                 ",
"                @@@@@$$#$$@@@@@                   ",
"                   @@.$#$.@@                      ",
"                   @@.....@@                      ",
"                   @@@...@@@                      ",
"                   @@@@@@@@@                      ",
"                   @@@@@@@@@                      ",
"                    @@@@@@@                       ",
"                    @@@@@@@                       ",
"         ooooooo    @@@@@@@    ooooooo            ",
"         ooooooo    @@@@@@@    ooooooo            ",
"         ooooooo    @@@@@@@    ooooooo            ",
"         ooooooo%%%%@@@@@@@%%%%ooooooo            ",
"         ooooooo++++@@@@@@@++++ooooooo            ",
"         ooooooo%%%%@@@@@@@%%%%ooooooo            ",
"         ooooooo    @@@@@@@    ooooooo            ",
"         ooooooo     @@@@@     ooooooo            ",
"         ooooooo     @@@@@     ooooooo            ",
"                     @@@@@                        ",
"           @@@@@@@@@@@@@@@@@@@@@@@@@              ",
"           @@@@@@@@@@@@@@@@@@@@@@@@@              ",
"           @@@@@@@@@@@@@@@@@@@@@@@@@              ",
"           @@@@@@@@@@@@@@@@@@@@@@@@@              ",
"                      @@@                         ",
"                                                  "
};
