/* XPM */
static char *_7028e5d0edf45e0e4722e44c439d012lvh946m6F4Faa9lt[] = {
/* columns rows colors chars-per-pixel */
"50 50 10 1 ",
"  c None",
". c #3D2926",
"X c #293237",
"o c #374349",
"O c #3B4A52",
"+ c #4E626C",
"@ c #D73B0A",
"# c #FCD71A",
"$ c #007AEF",
"% c #ABAFB1",
/* pixels */
"                                                  ",
"                         @@@                      ",
"              @@@@@@@@@@@@@@@@@@@@@@@@@           ",
"              @@@@@@@@@@@@@@@@@@@@@@@@@           ",
"              @@@@@@@@@@@@@@@@@@@@@@@@@           ",
"              @@@@@@@@@@@@@@@@@@@@@@@@@           ",
"                        @@@@@                     ",
"            ooooooo     @@@@@     ooooooo         ",
"            ooooooo     @@@@@     ooooooo         ",
"            ooooooo    @@@@@@@    ooooooo         ",
"            ooooooo%%%%@@@@@@@%%%%ooooooo         ",
"            ooooooo++++@@@@@@@++++ooooooo         ",
"            ooooooo%%%%@@@@@@@%%%%ooooooo         ",
"            ooooooo    @@@@@@@    ooooooo         ",
"            ooooooo    @@@@@@@    ooooooo         ",
"            ooooooo    @@@@@@@    ooooooo         ",
"                       @@@@@@@                    ",
"                       @@@@@@@                    ",
"                      @@@@@@@@@                   ",
"                      @@@@@@@@@                   ",
"                      @@@...@@@                   ",
"                      @@.....@@                   ",
"                      @@.$#$.@@                   ",
"                   @@@@@$$#$$@@@@@                ",
"                 @@@@@@@$$#$$@@@@@@@              ",
"                @@@@@@@@.$#$.@@@@@@@@             ",
"                @@@@@@@@.....@@@@@@@@             ",
"                @@@@@@@@@@@@@@@@@@@@@             ",
"                +@@@@@@@@@@@@@@@@@@@+             ",
"                +@@@@@@@@@@@@@@@@@@@+             ",
"                +@@@@@@@@@@@@@@@@@@@+             ",
"                ++@@@@@@.....@@@@@@++             ",
"                ++@@@@@@@@@@@@@@@@@++             ",
"                +++@@@@@@@@@@@@@@@+++             ",
"                +++@@@@@@@@@@@@@@@+++             ",
"           ooooooo++@@@@@@@@@@@@@++ooooooo        ",
"           ooooooo++@@@@@@@@@@@@@++ooooooo        ",
"           ooooooo++@@@@@@@@@@@@@++ooooooo        ",
"           oooooooOOO@@@@@@@@@@@OOOooooooo        ",
"           oooooooXXX@@@@@@@@@@@XXXooooooo        ",
"           ooooooo    @@@@@@@@@    ooooooo        ",
"           oooo@@@@@@@@@@@@@@@@@@@@@@@oooo        ",
"           oooo@@@@@@@@@@@@@@@@@@@@@@@oooo        ",
"           oooo@@@@@@@@@@@@@@@@@@@@@@@oooo        ",
"               @@@@@@@@@@@@@@@@@@@@@@@            ",
"               @@@@@@@@@@@@@@@@@@@@@@@            ",
"               @@@@@@@@@@@@@@@@@@@@@@@            ",
"               @@@@@@@@@@@@@@@@@@@@@@@            ",
"                                                  ",
"                                                  "
};
