/* XPM */
static char *fd63318b2f664c30e9e39d24539aa455Q3pswxnqBdxZrZDX[] = {
/* columns rows colors chars-per-pixel */
"50 50 12 1 ",
"  c #000100",
". c #321C19",
"X c #3C3C3C",
"o c #583F3B",
"O c #036D05",
"+ c #484848",
"@ c #D36D3A",
"# c #39912E",
"$ c #58AE4A",
"% c #FFF80A",
"& c #D4C42B",
"* c #8D8D8D",
/* pixels */
"                        XX                        ",
"  ****    ****    ****  #O  ****    ****    ****  ",
" * ** *  * ** *  * ** * O$ * *% *  * ** *  * ** * ",
" **  **  **  **  **  ** +%%*%%%%%  **  **  **  ** ",
" **  **  **  **  **  ** +%%%%%%%%  **  **  **  ** ",
" * ** *  * ** *  * ** * +%%%%%%%%  * ** *  * ** * ",
"  ****    ****    ****  +%%%%%%%%   ****    ****  ",
"                        +%%%%%%%%                 ",
"        OOOOO#OOOOOOOOOO+%%%%%O%%OO#OOOOOO        ",
"  ****  OO$OOOOO$OOOO#O@@OO%OOOOO#OOOO$O#O  ****  ",
" * ** * #OOOO$OOOOO&OOO@+OOOOO$OOOO$OOOOOO * ** * ",
" **  ** OO#OOOOO#O&&&OO@OOO#OOOOO#OOOOOOOO **  ** ",
" **  ** OOOO..........................#O$O **  ** ",
" * ** * OO$O..oooooooooooooooooooooo..OOOO * ** * ",
"  ****  O$OO.o.oooooooooooooooooooo.o.OO$O  ****  ",
"        OOOO.oo.oooooooooooooooooo.oo.OOOO        ",
"        OOO#.ooo.oooooooooooooooo.ooo.#OOO        ",
"  *%%%%%%OOO.oooo.oooooooooooooo.oooo.OOOO  ****  ",
" * %%%%%%O#O.ooooo.oooooooooooo.ooooo.&OO# * ** * ",
" *%%%%%%OOOO.oooooo.oooooooooo.oooooo.&&OO **  ** ",
" **%%%%%%#OO.ooooooo.oooooooo.ooooooo.&OOO **  ** ",
" * %%%%%%OOO.oooooooo.ooooo..oooooooo.OO#O * ** * ",
"  **%%%%%%O$.ooooooooo.oooo.ooooooooo.OOOO  ****  ",
"   %%%%%%OOO.oooooooooo.oo.oooooooooo.@@@O        ",
"X#O%%%%%%OOO.ooooooooooo..ooooooooooo.O+@++++++O$X",
"XOO++++++@+O.ooooooooooo..ooooooooooo.OOO%%%%%%OOX",
"        O@@@.oooooooooo.oo.oooooooooo.OOO%%%%%%   ",
"  ****  OOOO.ooooooooo.oooo.ooooooooo.OO%%%%%%**  ",
" * ** * O#OO.oooooooo.oooooo.oooooooo.O$O%%%%%% * ",
" **  ** OOO&.ooooooo.oooooooo.ooooooo.OOO%%%%%%** ",
" **  ** OO&&.oooooo.oooooooooo.oooooo.OOOO%%%%%%* ",
" * ** * #OO&.ooooo.oooooooooooo.ooooo.O#O%%%%%% * ",
"  ****  OOOO.oooo.oooooooooooooo.oooo.OOO%%%%%%*  ",
"        OOOO.ooo.oooooooooooooooo.ooo.OOOO        ",
"        OO$O.oo.oooooooooooooooooo.oo.$O#O        ",
"  ****  #OOO.o.oooooooooooooooooooo.o.OOOO  ****  ",
" * ** * OOO#..oooooooooooooooooooooo..OOOO * ** * ",
" **  ** OOOO..........................O#O$ **  ** ",
" **  ** O$OOOOOOO#O$OOO#OO@OO&&&OOOOO$OOOO **  ** ",
" * ** * OOO#OO$OOOOOOOOOO+@O#O&OOO#OOOOO#O * ** * ",
"  ****  #OOOOOOOOOO#OO%OO@@OOOOOOOOOO#OOOO  ****  ",
"        OOO$OO#OO%%O%%%%%+OOOO#OO$OOOOO$$O        ",
"                 %%%%%%%%+                        ",
"  ****    ****   %%%%%%%%+  ****    ****    ****  ",
" * ** *  * ** *  %%%%%%%%+ * ** *  * ** *  * ** * ",
" **  **  **  **  %%%%%%%%+ **  **  **  **  **  ** ",
" **  **  **  **  %%%%%*%%+ **  **  **  **  **  ** ",
" * ** *  * ** *  * %* * OO * ** *  * ** *  * ** * ",
"  ****    ****    ****  O#  ****    ****    ****  ",
"                        XX                        "
};
