/* XPM */
static char *_77f7204e8b743fa99b7643f8fda3fab4u1PMDAuOPQcPGvJ[] = {
/* columns rows colors chars-per-pixel */
"50 50 5 1 ",
"  c #036D05",
". c #DA0000",
"X c #39912E",
"o c #58AE4A",
"O c white",
/* pixels */
" o       X     o   X                              ",
"      o     o   X       o   o   o   o   o   o  X  ",
" o X     X          o            X                ",
"                         X            X  X     o  ",
" X    o  o   o  o      o     X o            o     ",
"   X               X      o         o   o       X ",
"  o         X  X     o           o           X    ",
"      o  o         X   X o     o  X  X     o   o  ",
" X  X       o   o           o          o     X    ",
"      X    X      X              o         X      ",
"  o     o           o  o o          o   o         ",
"X   o  X   X  o            X  o   X       X  o  o ",
"                  X                    X          ",
"OOOOO.....OOOOO.....OOOOO.....OOOOO.....OOOOO.....",
"OOOOO.....OOOOO.....OOOOO.....OOOOO.....OOOOO.....",
"OOOOO.....OOOOO.....OOOOO.....OOOOO.....OOOOO.....",
"OOOOO.....OOOOO.....OOOOO.....OOOOO.....OOOOO.....",
"OOOOO.....OOOOO.....OOOOO.....OOOOO.....OOOOO.....",
"OOOOO.....OOOOO.....OOOOO.....OOOOO.....OOOOO.....",
"OOOOO.....OOOOO.....OOOOO.....OOOOO.....OOOOO.....",
"OOOOO.....OOOOO.....OOOOO.....OOOOO.....OOOOO.....",
"OOOOO.....OOOOO.....OOOOO.....OOOOO.....OOOOO.....",
"OOOOO.....OOOOO.....OOOOO.....OOOOO.....OOOOO.....",
"OOOOO.....OOOOO.....OOOOO.....OOOOO.....OOOOO.....",
"OOOOO.....OOOOO.....OOOOO.....OOOOO.....OOOOO.....",
"OOOOO.....OOOOO.....OOOOO.....OOOOO.....OOOOO.....",
"OOOOO.....OOOOO.....OOOOO.....OOOOO.....OOOOO.....",
"OOOOO.....OOOOO.....OOOOO.....OOOOO.....OOOOO.....",
"OOOOO.....OOOOO.....OOOOO.....OOOOO.....OOOOO.....",
"OOOOO.....OOOOO.....OOOOO.....OOOOO.....OOOOO.....",
"OOOOO.....OOOOO.....OOOOO.....OOOOO.....OOOOO.....",
"OOOOO.....OOOOO.....OOOOO.....OOOOO.....OOOOO.....",
"OOOOO.....OOOOO.....OOOOO.....OOOOO.....OOOOO.....",
"OOOOO.....OOOOO.....OOOOO.....OOOOO.....OOOOO.....",
"OOOOO.....OOOOO.....OOOOO.....OOOOO.....OOOOO.....",
"OOOOO.....OOOOO.....OOOOO.....OOOOO.....OOOOO.....",
"OOOOO.....OOOOO.....OOOOO.....OOOOO.....OOOOO.....",
"OOOOO.....OOOOO.....OOOOO.....OOOOO.....OOOOO.....",
"OOOOO.....OOOOO.....OOOOO.....OOOOO.....OOOOO.....",
"OOOOO.....OOOOO.....OOOOO.....OOOOO.....OOOOO.....",
"OOOOO.....OOOOO.....OOOOO.....OOOOO.....OOOOO.....",
"OOOOO.....OOOOO.....OOOOO.....OOOOO.....OOOOO.....",
"OOOOO.....OOOOO.....OOOOO.....OOOOO.....OOOOO.....",
"OOOOO.....OOOOO.....OOOOO.....OOOOO.....OOOOO.....",
"OOOOO.....OOOOO.....OOOOO.....OOOOO.....OOOOO.....",
"OOOOO.....OOOOO.....OOOOO.....OOOOO.....OOOOO.....",
"OOOOO.....OOOOO.....OOOOO.....OOOOO.....OOOOO.....",
"OOOOO.....OOOOO.....OOOOO.....OOOOO.....OOOOO.....",
"OOOOO.....OOOOO.....OOOOO.....OOOOO.....OOOOO.....",
"OOOOOOOOOOOOOOOOOOOOOOOOOOOOOOOOOOOOOOOOOOOOOOOOOO"
};
