/* XPM */
static char *_f00c3a5f817402aef6788b30b1d6724wcnU4g4jEgWCTgov[] = {
/* columns rows colors chars-per-pixel */
"50 50 5 1 ",
"  c #036D05",
". c #DA0000",
"X c #39912E",
"o c #58AE4A",
"O c white",
/* pixels */
"             ....................................O",
"     X     o ....................................O",
" X o   o     ....................................O",
"             ....................................O",
"      X X  o ....................................O",
" o  o        OOOOOOOOOOOOOOOOOOOOOOOOOOOOOOOOOOOOO",
"       o X   OOOOOOOOOOOOOOOOOOOOOOOOOOOOOOOOOOOOO",
"           X OOOOOOOOOOOOOOOOOOOOOOOOOOOOOOOOOOOOO",
"   X         OOOOOOOOOOOOOOOOOOOOOOOOOOOOOOOOOOOOO",
" o   o    o  OOOOOOOOOOOOOOOOOOOOOOOOOOOOOOOOOOOOO",
"        o   X....................................O",
"   X         ....................................O",
"       X     ....................................O",
" o   o    o  ....................................O",
"             ....................................O",
"       X   X OOOOOOOOOOOOOOOOOOOOOOOOOOOOOOOOOOOOO",
"  X   o  o   OOOOOOOOOOOOOOOOOOOOOOOOOOOOOOOOOOOOO",
" o           OOOOOOOOOOOOOOOOOOOOOOOOOOOOOOOOOOOOO",
"    o  o     OOOOOOOOOOOOOOOOOOOOOOOOOOOOOOOOOOOOO",
"           o OOOOOOOOOOOOOOOOOOOOOOOOOOOOOOOOOOOOO",
"    X        ....................................O",
" o      o    ....................................O",
"           X ....................................O",
"     o       ....................................O",
"   X   o  o  ....................................O",
" o           OOOOOOOOOOOOOOOOOOOOOOOOOOOOOOOOOOOOO",
"    o  X  o  OOOOOOOOOOOOOOOOOOOOOOOOOOOOOOOOOOOOO",
"             OOOOOOOOOOOOOOOOOOOOOOOOOOOOOOOOOOOOO",
"      o      OOOOOOOOOOOOOOOOOOOOOOOOOOOOOOOOOOOOO",
"  o       o  OOOOOOOOOOOOOOOOOOOOOOOOOOOOOOOOOOOOO",
"X    X X     ....................................O",
"         X  X....................................O",
"             ....................................O",
" X  o   o    ....................................O",
"o     X      ....................................O",
"           o OOOOOOOOOOOOOOOOOOOOOOOOOOOOOOOOOOOOO",
"    o        OOOOOOOOOOOOOOOOOOOOOOOOOOOOOOOOOOOOO",
" o    X o    OOOOOOOOOOOOOOOOOOOOOOOOOOOOOOOOOOOOO",
"         X X OOOOOOOOOOOOOOOOOOOOOOOOOOOOOOOOOOOOO",
"             OOOOOOOOOOOOOOOOOOOOOOOOOOOOOOOOOOOOO",
"X X o  o     ....................................O",
"          o  ....................................O",
"           X ....................................O",
" o  o  o X   ....................................O",
"             ....................................O",
"        X  o OOOOOOOOOOOOOOOOOOOOOOOOOOOOOOOOOOOOO",
"  X  X       OOOOOOOOOOOOOOOOOOOOOOOOOOOOOOOOOOOOO",
"      o   o  OOOOOOOOOOOOOOOOOOOOOOOOOOOOOOOOOOOOO",
"o o X   X    OOOOOOOOOOOOOOOOOOOOOOOOOOOOOOOOOOOOO",
"           X OOOOOOOOOOOOOOOOOOOOOOOOOOOOOOOOOOOOO"
};
