/* XPM */
static char *_6726087443d483bdd7e94b4011325e4rRten77ioDYgKvIZ[] = {
/* columns rows colors chars-per-pixel */
"50 50 5 1 ",
"  c #036D05",
". c #DA0000",
"X c #39912E",
"o c #58AE4A",
"O c white",
/* pixels */
"OOOOOOOOOOOOOOOOOOOOOOOOOOOOOOOOOOOOO X           ",
"OOOOOOOOOOOOOOOOOOOOOOOOOOOOOOOOOOOOO    X   X o o",
"OOOOOOOOOOOOOOOOOOOOOOOOOOOOOOOOOOOOO  o   o      ",
"OOOOOOOOOOOOOOOOOOOOOOOOOOOOOOOOOOOOO       X  X  ",
"OOOOOOOOOOOOOOOOOOOOOOOOOOOOOOOOOOOOO o  X        ",
"O....................................             ",
"O....................................   X o  o  o ",
"O.................................... X           ",
"O....................................  o          ",
"O....................................     o  o X X",
"OOOOOOOOOOOOOOOOOOOOOOOOOOOOOOOOOOOOO             ",
"OOOOOOOOOOOOOOOOOOOOOOOOOOOOOOOOOOOOO X X         ",
"OOOOOOOOOOOOOOOOOOOOOOOOOOOOOOOOOOOOO    o X    o ",
"OOOOOOOOOOOOOOOOOOOOOOOOOOOOOOOOOOOOO        o    ",
"OOOOOOOOOOOOOOOOOOOOOOOOOOOOOOOOOOOOO o           ",
"O....................................      X     o",
"O....................................    o   o  X ",
"O....................................             ",
"O....................................X  X         ",
"O....................................     X X    X",
"OOOOOOOOOOOOOOOOOOOOOOOOOOOOOOOOOOOOO  o       o  ",
"OOOOOOOOOOOOOOOOOOOOOOOOOOOOOOOOOOOOO      o      ",
"OOOOOOOOOOOOOOOOOOOOOOOOOOOOOOOOOOOOO             ",
"OOOOOOOOOOOOOOOOOOOOOOOOOOOOOOOOOOOOO  o  X  o    ",
"OOOOOOOOOOOOOOOOOOOOOOOOOOOOOOOOOOOOO           o ",
"O....................................  o  o   X   ",
"O....................................       o     ",
"O.................................... X           ",
"O....................................    o      o ",
"O....................................        X    ",
"OOOOOOOOOOOOOOOOOOOOOOOOOOOOOOOOOOOOO o           ",
"OOOOOOOOOOOOOOOOOOOOOOOOOOOOOOOOOOOOO     o  o    ",
"OOOOOOOOOOOOOOOOOOOOOOOOOOOOOOOOOOOOO           o ",
"OOOOOOOOOOOOOOOOOOOOOOOOOOOOOOOOOOOOO   o  o   X  ",
"OOOOOOOOOOOOOOOOOOOOOOOOOOOOOOOOOOOOO X   X       ",
"O....................................             ",
"O....................................  o    o   o ",
"O....................................     X       ",
"O....................................         X   ",
"O....................................X   o        ",
"OOOOOOOOOOOOOOOOOOOOOOOOOOOOOOOOOOOOO  o    o   o ",
"OOOOOOOOOOOOOOOOOOOOOOOOOOOOOOOOOOOOO         X   ",
"OOOOOOOOOOOOOOOOOOOOOOOOOOOOOOOOOOOOO X           ",
"OOOOOOOOOOOOOOOOOOOOOOOOOOOOOOOOOOOOO   X o       ",
"OOOOOOOOOOOOOOOOOOOOOOOOOOOOOOOOOOOOO        o  o ",
"O.................................... o  X X      ",
"O....................................             ",
"O....................................     o   o X ",
"O.................................... o     X     ",
"O....................................             "
};
