/* XPM */
static char *c1f69375150d4be7dc3ca637d237fb78IN6QJ7Z5grjRqmVm[] = {
/* columns rows colors chars-per-pixel */
"50 50 5 1 ",
"  c #036D05",
". c #DA0000",
"X c #39912E",
"o c #58AE4A",
"O c white",
/* pixels */
"OOOOOOOOOOOOOOOOOOOOOOOOOOOOOOOOOOOOOOOOOOOOOOOOOO",
".....OOOOO.....OOOOO.....OOOOO.....OOOOO.....OOOOO",
".....OOOOO.....OOOOO.....OOOOO.....OOOOO.....OOOOO",
".....OOOOO.....OOOOO.....OOOOO.....OOOOO.....OOOOO",
".....OOOOO.....OOOOO.....OOOOO.....OOOOO.....OOOOO",
".....OOOOO.....OOOOO.....OOOOO.....OOOOO.....OOOOO",
".....OOOOO.....OOOOO.....OOOOO.....OOOOO.....OOOOO",
".....OOOOO.....OOOOO.....OOOOO.....OOOOO.....OOOOO",
".....OOOOO.....OOOOO.....OOOOO.....OOOOO.....OOOOO",
".....OOOOO.....OOOOO.....OOOOO.....OOOOO.....OOOOO",
".....OOOOO.....OOOOO.....OOOOO.....OOOOO.....OOOOO",
".....OOOOO.....OOOOO.....OOOOO.....OOOOO.....OOOOO",
".....OOOOO.....OOOOO.....OOOOO.....OOOOO.....OOOOO",
".....OOOOO.....OOOOO.....OOOOO.....OOOOO.....OOOOO",
".....OOOOO.....OOOOO.....OOOOO.....OOOOO.....OOOOO",
".....OOOOO.....OOOOO.....OOOOO.....OOOOO.....OOOOO",
".....OOOOO.....OOOOO.....OOOOO.....OOOOO.....OOOOO",
".....OOOOO.....OOOOO.....OOOOO.....OOOOO.....OOOOO",
".....OOOOO.....OOOOO.....OOOOO.....OOOOO.....OOOOO",
".....OOOOO.....OOOOO.....OOOOO.....OOOOO.....OOOOO",
".....OOOOO.....OOOOO.....OOOOO.....OOOOO.....OOOOO",
".....OOOOO.....OOOOO.....OOOOO.....OOOOO.....OOOOO",
".....OOOOO.....OOOOO.....OOOOO.....OOOOO.....OOOOO",
".....OOOOO.....OOOOO.....OOOOO.....OOOOO.....OOOOO",
".....OOOOO.....OOOOO.....OOOOO.....OOOOO.....OOOOO",
".....OOOOO.....OOOOO.....OOOOO.....OOOOO.....OOOOO",
".....OOOOO.....OOOOO.....OOOOO.....OOOOO.....OOOOO",
".....OOOOO.....OOOOO.....OOOOO.....OOOOO.....OOOOO",
".....OOOOO.....OOOOO.....OOOOO.....OOOOO.....OOOOO",
".....OOOOO.....OOOOO.....OOOOO.....OOOOO.....OOOOO",
".....OOOOO.....OOOOO.....OOOOO.....OOOOO.....OOOOO",
".....OOOOO.....OOOOO.....OOOOO.....OOOOO.....OOOOO",
".....OOOOO.....OOOOO.....OOOOO.....OOOOO.....OOOOO",
".....OOOOO.....OOOOO.....OOOOO.....OOOOO.....OOOOO",
".....OOOOO.....OOOOO.....OOOOO.....OOOOO.....OOOOO",
".....OOOOO.....OOOOO.....OOOOO.....OOOOO.....OOOOO",
".....OOOOO.....OOOOO.....OOOOO.....OOOOO.....OOOOO",
"          X                    X                  ",
" o  o  X       X   o  X            o  X   X  o   X",
"         o   o          o o  o           o     o  ",
"      X         o              X      X    X      ",
"    X     o          o           o   o       X  X ",
"  o   o     X  X  o     o X   X         o  o      ",
"    X           o           o     X  X         o  ",
" X       o   o         o      X               X   ",
"     o            o X     o      o  o   o  o    X ",
"  o     X  X            X                         ",
"                X            o          X     X o ",
"  X  o   o   o   o   o   o       X   o     o      ",
"                              X   o     X       o "
};
