/* XPM */
static char *a4b6755153b9482bc9c1817220272d03R2EFKRyCg1OjolIq[] = {
/* columns rows colors chars-per-pixel */
"50 50 5 1 ",
"  c black",
". c gray19",
"X c #555D5D",
"o c #880000",
"O c white",
/* pixels */
"OOOOOXXXXXOOOOOXXXXXOOOOOXXXXXOOOOOXXXXXOOOOOXXXXX",
"XXXXXXXXXXXXXXXXXXXXXXXXXXXXXXXXXXXXXXXXXXXXXXXXXX",
"XXXXXXXXXXXXXXXXXXXXXXXXXXXXXXXXXXXXXXXXXXXXXXXXXX",
"XXXXXXXXXXXXXXXXXXXXXXXXXXXXXXXXXXXXXXXXXXXXXXXXXX",
"XXXXXXXXXXXXXXXXXXXXXXXXXXXXXXXXXXXXXXXXXXXXXXXXXX",
"XXXXXXXXXXXXXXXXXXXXXXXXXXXXXXXXXXXXXXXXXXXXXXXXXX",
"XXXXXXXXXXXXXXXXXXXXXXXXXXXXXXXXXXXXXXXXXXXXXXXXXX",
"XXXXXXXXXXXXXXXXXXXXXXXXXXXXXXXXXXXXXXXXXXXXXXXXXX",
"XXXXXXXXXXXXXXXXXXXXXXXXXXXXXXXXXXXXXXXXXXXXXXXXXX",
"XXXXXXXXXXXXXXXXXXXXXXXXXXXXXXXXXXXXXXXXXXXXXXXXXX",
"XXXXXXXXXXXXXXXXXXXXXXXXXXXXXXXXXXXXXXXXXXXXXXXXXX",
"XXXXXXXXXXXXXXXXXXXXXXXXXXXXXXXXXXXXXXXXXXXXXXXXXX",
"XXXXXXXXXXXXXXXXXXXXXXXXXXXXXXXXXXXXXXXXXXXXXXXXXX",
"XXXXXXXXXXXXXXXX                  XXXXXXXXXXXXXXXX",
"XXXXXXXXXXXXXXXX                  XXXXXXXXXXXXXXXX",
"XXXXXXXXXXXXXXX                    XXXXXXXXXXXXXXX",
"XXXXXXXXXXXXX        oooooooo        XXXXXXXXXXXXX",
"XXXXXXXXXXXXX                        XXXXXXXXXXXXX",
"XXXXXXXXXXXXX                        XXXXXXXXXXXXX",
"XXXXXXXXXXXXX      ............      XXXXXXXXXXXXX",
"XXXXXXXXXXXXX      . XXX  XXX .      XXXXXXXXXXXXX",
"XXXXXXXXXXXXX   o  .  XX  XX  .  o   XXXXXXXXXXXXX",
"XXXXXXXXXXXXX   o  .X  X  X  X.  o   XXXXXXXXXXXXX",
"XXXXXXXXXXXXX   o  .XX      XX.  o   XXXXXXXXXXXXX",
"XXXXXXXXXXXXX   o  . XX    XX .  o   XXXXXXXXXXXXX",
"XXXXXXXXXXXXX   o  .          .  o   XXXXXXXXXXXXX",
"XXXXXXXXXXXXX   o  . XX    XX .  o   XXXXXXXXXXXXX",
"XXXXXXXXXXXXX   o  .XX      XX.  o   XXXXXXXXXXXXX",
"XXXXXXXXXXXXX   o  .X  X  X  X.  o   XXXXXXXXXXXXX",
"XXXXXXXXXXXXX   o  .  XX  XX  .  o   XXXXXXXXXXXXX",
"XXXXXXXXXXXXX      . XXX  XXX .      XXXXXXXXXXXXX",
"XXXXXXXXXXXXX      ............      XXXXXXXXXXXXX",
"XXXXXXXXXXXXX                        XXXXXXXXXXXXX",
"XXXXXXXXXXXXX                        XXXXXXXXXXXXX",
"XXXXXXXXXXXXXXX      oooooooo      XXXXXXXXXXXXXXX",
"XXXXXXXXXXXXXXXX                  XXXXXXXXXXXXXXXX",
"XXXXXXXXXXXXXXXX                  XXXXXXXXXXXXXXXX",
"XXXXXXXXXXXXXXXXXXXXXXXXXXXXXXXXXXXXXXXXXXXXXXXXXX",
"XXXXXXXXXXXXXXXXXXXXXXXXXXXXXXXXXXXXXXXXXXXXXXXXXX",
"XXXXXXXXXXXXXXXXXXXXXXXXXXXXXXXXXXXXXXXXXXXXXXXXXX",
"XXXXXXXXXXXXXXXXXXXXXXXXXXXXXXXXXXXXXXXXXXXXXXXXXX",
"XXXXXXXXXXXXXXXXXXXXXXXXXXXXXXXXXXXXXXXXXXXXXXXXXX",
"XXXXXXXXXXXXXXXXXXXXXXXXXXXXXXXXXXXXXXXXXXXXXXXXXX",
"XXXXXXXXXXXXXXXXXXXXXXXXXXXXXXXXXXXXXXXXXXXXXXXXXX",
"XXXXXXXXXXXXXXXXXXXXXXXXXXXXXXXXXXXXXXXXXXXXXXXXXX",
"XXXXXXXXXXXXXXXXXXXXXXXXXXXXXXXXXXXXXXXXXXXXXXXXXX",
"XXXXXXXXXXXXXXXXXXXXXXXXXXXXXXXXXXXXXXXXXXXXXXXXXX",
"XXXXXXXXXXXXXXXXXXXXXXXXXXXXXXXXXXXXXXXXXXXXXXXXXX",
"XXXXXXXXXXXXXXXXXXXXXXXXXXXXXXXXXXXXXXXXXXXXXXXXXX",
"OOOOOXXXXXOOOOOXXXXOOOOOXXXXXOOOOOXXXXXXOOOOOXXXXX"
};
