/* XPM */
static char *ac56e1c114924507a07a0da2bc0c4a1f0X4tJ4QFUaS0QtE2[] = {
/* columns rows colors chars-per-pixel */
"50 50 9 1 ",
"  c None",
". c #010204",
"X c #000B0C",
"o c #0B0C0E",
"O c #100609",
"+ c #161718",
"@ c #630B0D",
"# c #03FD05",
"$ c #B69026",
/* pixels */
"                                                  ",
"                                                  ",
"                                                  ",
"                       XX                         ",
"                      XXXX                        ",
"                     XXXXXX                       ",
"                    XXXXXXXX                      ",
"                  oXXXXXXXXXoX                    ",
"                  o.XX++++XX.X                    ",
"                  ooX++##++X.X                    ",
"            XXXXX oo++####++.X XXXXX              ",
"             XXXX o++######++X XXXX               ",
"              XXX o+########+X XXX                ",
"               XX ..########+X XX                 ",
"                X ..########+X X                  ",
"                  ..+######++X                    ",
"                  .X++####++XX                    ",
"                  .XX++++++XXX                    ",
"                  .XXX++++XXXX                    ",
"                  .XX++$$++XXX                    ",
"            XXXXX XX++$$$$++XX XXXXX              ",
"             XXXX X.+$$$$$$++X XXXX               ",
"              XXX X+$$$$$$$$+X XXX                ",
"               XX X+$$$$$$$$+X XX                 ",
"                X X+$$$$$$$$+X X                  ",
"                  X++$$$$$$++X                    ",
"                  XX++$$$$++XX                    ",
"                  XXX++++++XXX                    ",
"                  XXXX++++XXXX                    ",
"                  XXX++@@++XXX                    ",
"            XXXXX XX++@@@@++XX XXXXX              ",
"             XXXX X.+@@@@@@++X XXXX               ",
"              X.X X+@@@@@@@@+X .XX                ",
"               X. X+@@@@@@@@+X X.                 ",
"                X X+@@@@@@@@+X X                  ",
"                  X++@@@@@@++X                    ",
"                  X.++@@@@++XX                    ",
"                  XXX++++++XXX                    ",
"                  XXXXX+++XXXX                    ",
"                    OOO++XXX                      ",
"                     OX++XX                       ",
"                     X.++XO                       ",
"                     XX++XO                       ",
"                     XX++XO                       ",
"                     XXXXXO                       ",
"                     OOOOOO                       ",
"                                                  ",
"                                                  ",
"                                                  ",
"                                                  "
};
