/* XPM */
static char *c2333e82209c42e1ee8242366cb095174KwuVFdqs5g53HML[] = {
/* columns rows colors chars-per-pixel */
"50 50 10 1 ",
"  c None",
". c #623412",
"X c #633412",
"o c #8B4C20",
"O c #C15F27",
"+ c #FAA918",
"@ c #FCD71A",
"# c #FDEF1C",
"$ c #FEF6B6",
"% c white",
/* pixels */
"                                                  ",
"                       ++                         ",
"                      ++++                        ",
"                   ++++++++++                     ",
"                  ++########++                    ",
"                 ++##########++                   ",
"                +++##########+++                  ",
"               ++++++++++++++++++                 ",
"            +++@@@@@@@@@@@@@@@@@@+++              ",
"           ++++##################++++             ",
"        ++++  +##$$$#############+  ++++          ",
"        ++++  +##$%$#############+  ++++          ",
"        ++    +##$%$###OO########+    ++          ",
"        ++    +##$%$##OOO########+    ++          ",
"        ++    +##$%$#OOOO########+    ++          ",
"        ++    +##$%$#OOOO########+    ++          ",
"          ++  +##$%$###OO########+  ++            ",
"          ++  +##$%$###OO########+  ++            ",
"            +++##$%$###OO########+++              ",
"            +++##$$$###OO########+++              ",
"              +########OO########+                ",
"              ++#######OO#######++                ",
"               ++######OO######++                 ",
"                ++############++                  ",
"                 ++##########++                   ",
"                  +++######+++                    ",
"                    +######+                      ",
"                    +++##+++                      ",
"                      +##+                        ",
"                      +##+                        ",
"                      +##+                        ",
"                      +##+                        ",
"                      +##+                        ",
"                    +++##+++                      ",
"                  +++++##+++++                    ",
"                 ++##########++                   ",
"                 ++##########++                   ",
"              ....................                ",
"                XXXXXX.XXXXXXXXX                  ",
"                oooooooooooooooo                  ",
"                ooo##########ooo                  ",
"                ooo##########ooo                  ",
"                ooo##########ooo                  ",
"                ooo##########ooo                  ",
"                ooo##########ooo                  ",
"                ooo##########ooo                  ",
"                oooooooooooooooo                  ",
"                oooooooooooooooo                  ",
"              ....................                ",
"              ....................                "
};
